<?xml version="1.0" encoding="UTF-8" standalone="no"?>
<!DOCTYPE svg PUBLIC "-//W3C//DTD SVG 1.1//EN"
 "http://www.w3.org/Graphics/SVG/1.1/DTD/svg11.dtd">
<!-- Generated by graphviz version 2.40.1 (20161225.0304)
 -->
<!-- Title: dependencies Pages: 1 -->
<svg width="956pt" height="284pt"
 viewBox="0.00 0.00 956.00 284.00" xmlns="http://www.w3.org/2000/svg" xmlns:xlink="http://www.w3.org/1999/xlink">
<g id="graph0" class="graph" transform="scale(1 1) rotate(0) translate(4 280)">
<title>dependencies</title>
<polygon fill="#ffffff" stroke="transparent" points="-4,4 -4,-280 952,-280 952,4 -4,4"/>
<text text-anchor="start" x="453.0091" y="-42.4" font-family="sans-serif" font-weight="bold" font-size="14.00" fill="#000000">Legend</text>
<polygon fill="#ffffb3" stroke="transparent" points="240,-10 240,-30 260,-30 260,-10 240,-10"/>
<text text-anchor="start" x="263.629" y="-15.4" font-family="sans-serif" font-size="14.00" fill="#000000"> &#160;Declarations</text>
<polygon fill="#8dd3c7" stroke="transparent" points="353,-10 353,-30 373,-30 373,-10 353,-10"/>
<text text-anchor="start" x="376.7251" y="-15.4" font-family="sans-serif" font-size="14.00" fill="#000000"> &#160;Module</text>
<polygon fill="#80b1d3" stroke="transparent" points="439,-10 439,-30 459,-30 459,-10 439,-10"/>
<text text-anchor="start" x="462.7812" y="-15.4" font-family="sans-serif" font-size="14.00" fill="#000000"> &#160;Bootstrap</text>
<polygon fill="#fdb462" stroke="transparent" points="536,-10 536,-30 556,-30 556,-10 536,-10"/>
<text text-anchor="start" x="559.6732" y="-15.4" font-family="sans-serif" font-size="14.00" fill="#000000"> &#160;Providers</text>
<polygon fill="#fb8072" stroke="transparent" points="632,-10 632,-30 652,-30 652,-10 632,-10"/>
<text text-anchor="start" x="655.7258" y="-15.4" font-family="sans-serif" font-size="14.00" fill="#000000"> &#160;Exports</text>
<g id="clust1" class="cluster">
<title>cluster_AppModule</title>
<polygon fill="none" stroke="#000000" stroke-dasharray="1,5" points="8,-70 8,-268 940,-268 940,-70 8,-70"/>
</g>
<g id="clust2" class="cluster">
<title>cluster_AppModule_declarations</title>
<polygon fill="none" stroke="#000000" points="512,-78 512,-130 932,-130 932,-78 512,-78"/>
</g>
<g id="clust6" class="cluster">
<title>cluster_AppModule_imports</title>
<polygon fill="none" stroke="#000000" points="200,-78 200,-130 504,-130 504,-78 200,-78"/>
</g>
<g id="clust8" class="cluster">
<title>cluster_AppModule_bootstrap</title>
<polygon fill="none" stroke="#000000" points="445,-208 445,-260 569,-260 569,-208 445,-208"/>
</g>
<g id="clust9" class="cluster">
<title>cluster_AppModule_providers</title>
<polygon fill="none" stroke="#000000" points="16,-78 16,-130 192,-130 192,-78 16,-78"/>
</g>
<!-- AppComponent -->
<g id="node1" class="node">
<title>AppComponent</title>
<polygon fill="#ffffb3" stroke="#000000" points="923.9399,-122 818.0601,-122 818.0601,-86 923.9399,-86 923.9399,-122"/>
<text text-anchor="middle" x="871" y="-99.8" font-family="Times,serif" font-size="14.00" fill="#000000">AppComponent</text>
</g>
<!-- AppModule -->
<g id="node4" class="node">
<title>AppModule</title>
<polygon fill="#8dd3c7" stroke="#000000" points="548.6571,-187 545.6571,-191 524.6571,-191 521.6571,-187 465.3429,-187 465.3429,-151 548.6571,-151 548.6571,-187"/>
<text text-anchor="middle" x="507" y="-164.8" font-family="Times,serif" font-size="14.00" fill="#000000">AppModule</text>
</g>
<!-- AppComponent&#45;&gt;AppModule -->
<g id="edge1" class="edge">
<title>AppComponent&#45;&gt;AppModule</title>
<path fill="none" stroke="#000000" d="M871,-122.2843C871,-143.3211 871,-175 871,-175 871,-175 558.7554,-175 558.7554,-175"/>
<polygon fill="#000000" stroke="#000000" points="558.7555,-171.5001 548.7554,-175 558.7554,-178.5001 558.7555,-171.5001"/>
</g>
<!-- D3GraphsComponent -->
<g id="node2" class="node">
<title>D3GraphsComponent</title>
<polygon fill="#ffffb3" stroke="#000000" points="800.3655,-122 661.6345,-122 661.6345,-86 800.3655,-86 800.3655,-122"/>
<text text-anchor="middle" x="731" y="-99.8" font-family="Times,serif" font-size="14.00" fill="#000000">D3GraphsComponent</text>
</g>
<!-- D3GraphsComponent&#45;&gt;AppModule -->
<g id="edge2" class="edge">
<title>D3GraphsComponent&#45;&gt;AppModule</title>
<path fill="none" stroke="#000000" d="M731,-122.0225C731,-139.3734 731,-163 731,-163 731,-163 558.8699,-163 558.8699,-163"/>
<polygon fill="#000000" stroke="#000000" points="558.87,-159.5001 548.8699,-163 558.8699,-166.5001 558.87,-159.5001"/>
</g>
<!-- TopBarComponent -->
<g id="node3" class="node">
<title>TopBarComponent</title>
<polygon fill="#ffffb3" stroke="#000000" points="644.0968,-122 519.9032,-122 519.9032,-86 644.0968,-86 644.0968,-122"/>
<text text-anchor="middle" x="582" y="-99.8" font-family="Times,serif" font-size="14.00" fill="#000000">TopBarComponent</text>
</g>
<!-- TopBarComponent&#45;&gt;AppModule -->
<g id="edge3" class="edge">
<title>TopBarComponent&#45;&gt;AppModule</title>
<path fill="none" stroke="#000000" d="M534.3899,-122.1061C534.3899,-122.1061 534.3899,-140.991 534.3899,-140.991"/>
<polygon fill="#000000" stroke="#000000" points="530.89,-140.9909 534.3899,-150.991 537.89,-140.991 530.89,-140.9909"/>
</g>
<!-- AppComponent  -->
<g id="node7" class="node">
<title>AppComponent </title>
<polygon fill="#80b1d3" stroke="#000000" points="561.439,-252 452.561,-252 452.561,-216 561.439,-216 561.439,-252"/>
<text text-anchor="middle" x="507" y="-229.8" font-family="Times,serif" font-size="14.00" fill="#000000">AppComponent </text>
</g>
<!-- AppModule&#45;&gt;AppComponent  -->
<g id="edge6" class="edge">
<title>AppModule&#45;&gt;AppComponent </title>
<path fill="none" stroke="#000000" stroke-dasharray="1,5" d="M507,-187.1061C507,-187.1061 507,-205.991 507,-205.991"/>
<polygon fill="#000000" stroke="#000000" points="503.5001,-205.9909 507,-215.991 510.5001,-205.991 503.5001,-205.9909"/>
</g>
<!-- AppRoutingModule -->
<g id="node5" class="node">
<title>AppRoutingModule</title>
<polygon fill="#8dd3c7" stroke="#000000" points="496.2744,-122 493.2744,-126 472.2744,-126 469.2744,-122 367.7256,-122 367.7256,-86 496.2744,-86 496.2744,-122"/>
<text text-anchor="middle" x="432" y="-99.8" font-family="Times,serif" font-size="14.00" fill="#000000">AppRoutingModule</text>
</g>
<!-- AppRoutingModule&#45;&gt;AppModule -->
<g id="edge4" class="edge">
<title>AppRoutingModule&#45;&gt;AppModule</title>
<path fill="none" stroke="#000000" d="M480.7795,-122.1061C480.7795,-122.1061 480.7795,-140.991 480.7795,-140.991"/>
<polygon fill="#000000" stroke="#000000" points="477.2795,-140.9909 480.7795,-150.991 484.2795,-140.991 477.2795,-140.9909"/>
</g>
<!-- NgxD3GraphsModule -->
<g id="node6" class="node">
<title>NgxD3GraphsModule</title>
<polygon fill="#8dd3c7" stroke="#000000" points="349.6895,-122 346.6895,-126 325.6895,-126 322.6895,-122 208.3105,-122 208.3105,-86 349.6895,-86 349.6895,-122"/>
<text text-anchor="middle" x="279" y="-99.8" font-family="Times,serif" font-size="14.00" fill="#000000">NgxD3GraphsModule</text>
</g>
<!-- NgxD3GraphsModule&#45;&gt;AppModule -->
<g id="edge5" class="edge">
<title>NgxD3GraphsModule&#45;&gt;AppModule</title>
<path fill="none" stroke="#000000" d="M279,-122.0225C279,-139.3734 279,-163 279,-163 279,-163 455.1813,-163 455.1813,-163"/>
<polygon fill="#000000" stroke="#000000" points="455.1813,-166.5001 465.1813,-163 455.1813,-159.5001 455.1813,-166.5001"/>
</g>
<!-- D3GraphsService -->
<g id="node8" class="node">
<title>D3GraphsService</title>
<ellipse fill="#fdb462" stroke="#000000" cx="104" cy="-104" rx="79.8546" ry="18"/>
<text text-anchor="middle" x="104" y="-99.8" font-family="Times,serif" font-size="14.00" fill="#000000">D3GraphsService</text>
</g>
<!-- D3GraphsService&#45;&gt;AppModule -->
<g id="edge7" class="edge">
<title>D3GraphsService&#45;&gt;AppModule</title>
<path fill="none" stroke="#000000" d="M104,-122.2843C104,-143.3211 104,-175 104,-175 104,-175 455.0124,-175 455.0124,-175"/>
<polygon fill="#000000" stroke="#000000" points="455.0124,-178.5001 465.0124,-175 455.0124,-171.5001 455.0124,-178.5001"/>
</g>
</g>
</svg>
