<?xml version="1.0" encoding="UTF-8" standalone="no"?>
<!DOCTYPE svg PUBLIC "-//W3C//DTD SVG 1.1//EN"
 "http://www.w3.org/Graphics/SVG/1.1/DTD/svg11.dtd">
<!-- Generated by graphviz version 2.40.1 (20161225.0304)
 -->
<!-- Title: dependencies Pages: 1 -->
<svg width="1348pt" height="290pt"
 viewBox="0.00 0.00 1348.00 290.00" xmlns="http://www.w3.org/2000/svg" xmlns:xlink="http://www.w3.org/1999/xlink">
<g id="graph0" class="graph" transform="scale(1 1) rotate(0) translate(4 286)">
<title>dependencies</title>
<polygon fill="#ffffff" stroke="transparent" points="-4,4 -4,-286 1344,-286 1344,4 -4,4"/>
<text text-anchor="start" x="649.0091" y="-42.4" font-family="sans-serif" font-weight="bold" font-size="14.00" fill="#000000">Legend</text>
<polygon fill="#ffffb3" stroke="transparent" points="436,-10 436,-30 456,-30 456,-10 436,-10"/>
<text text-anchor="start" x="459.629" y="-15.4" font-family="sans-serif" font-size="14.00" fill="#000000"> &#160;Declarations</text>
<polygon fill="#8dd3c7" stroke="transparent" points="549,-10 549,-30 569,-30 569,-10 549,-10"/>
<text text-anchor="start" x="572.7251" y="-15.4" font-family="sans-serif" font-size="14.00" fill="#000000"> &#160;Module</text>
<polygon fill="#80b1d3" stroke="transparent" points="635,-10 635,-30 655,-30 655,-10 635,-10"/>
<text text-anchor="start" x="658.7812" y="-15.4" font-family="sans-serif" font-size="14.00" fill="#000000"> &#160;Bootstrap</text>
<polygon fill="#fdb462" stroke="transparent" points="732,-10 732,-30 752,-30 752,-10 732,-10"/>
<text text-anchor="start" x="755.6732" y="-15.4" font-family="sans-serif" font-size="14.00" fill="#000000"> &#160;Providers</text>
<polygon fill="#fb8072" stroke="transparent" points="828,-10 828,-30 848,-30 848,-10 828,-10"/>
<text text-anchor="start" x="851.7258" y="-15.4" font-family="sans-serif" font-size="14.00" fill="#000000"> &#160;Exports</text>
<g id="clust1" class="cluster">
<title>cluster_AppModule</title>
<polygon fill="none" stroke="#000000" stroke-dasharray="1,5" points="8,-70 8,-274 940,-274 940,-70 8,-70"/>
</g>
<g id="clust2" class="cluster">
<title>cluster_AppModule_declarations</title>
<polygon fill="none" stroke="#000000" points="200,-78 200,-130 620,-130 620,-78 200,-78"/>
</g>
<g id="clust6" class="cluster">
<title>cluster_AppModule_imports</title>
<polygon fill="none" stroke="#000000" points="628,-78 628,-130 932,-130 932,-78 628,-78"/>
</g>
<g id="clust8" class="cluster">
<title>cluster_AppModule_bootstrap</title>
<polygon fill="none" stroke="#000000" points="427,-214 427,-266 551,-266 551,-214 427,-214"/>
</g>
<g id="clust9" class="cluster">
<title>cluster_AppModule_providers</title>
<polygon fill="none" stroke="#000000" points="16,-78 16,-130 192,-130 192,-78 16,-78"/>
</g>
<g id="clust16" class="cluster">
<title>cluster_NgxD3GraphsModule</title>
<polygon fill="none" stroke="#000000" stroke-dasharray="1,5" points="948,-138 948,-206 1332,-206 1332,-138 948,-138"/>
</g>
<g id="clust17" class="cluster">
<title>cluster_NgxD3GraphsModule_declarations</title>
<polygon fill="none" stroke="#000000" points="1146,-146 1146,-198 1324,-198 1324,-146 1146,-146"/>
</g>
<g id="clust20" class="cluster">
<title>cluster_NgxD3GraphsModule_exports</title>
<polygon fill="none" stroke="#000000" points="956,-146 956,-198 1138,-198 1138,-146 956,-146"/>
</g>
<!-- AppComponent -->
<g id="node1" class="node">
<title>AppComponent</title>
<polygon fill="#ffffb3" stroke="#000000" points="611.9399,-122 506.0601,-122 506.0601,-86 611.9399,-86 611.9399,-122"/>
<text text-anchor="middle" x="559" y="-99.8" font-family="Times,serif" font-size="14.00" fill="#000000">AppComponent</text>
</g>
<!-- AppModule -->
<g id="node4" class="node">
<title>AppModule</title>
<polygon fill="#8dd3c7" stroke="#000000" points="530.6571,-190 527.6571,-194 506.6571,-194 503.6571,-190 447.3429,-190 447.3429,-154 530.6571,-154 530.6571,-190"/>
<text text-anchor="middle" x="489" y="-167.8" font-family="Times,serif" font-size="14.00" fill="#000000">AppModule</text>
</g>
<!-- AppComponent&#45;&gt;AppModule -->
<g id="edge1" class="edge">
<title>AppComponent&#45;&gt;AppModule</title>
<path fill="none" stroke="#000000" d="M518.5544,-122.2228C518.5544,-122.2228 518.5544,-143.7269 518.5544,-143.7269"/>
<polygon fill="#000000" stroke="#000000" points="515.0544,-143.7269 518.5544,-153.7269 522.0544,-143.727 515.0544,-143.7269"/>
</g>
<!-- D3GraphsComponent -->
<g id="node2" class="node">
<title>D3GraphsComponent</title>
<polygon fill="#ffffb3" stroke="#000000" points="488.3655,-122 349.6345,-122 349.6345,-86 488.3655,-86 488.3655,-122"/>
<text text-anchor="middle" x="419" y="-99.8" font-family="Times,serif" font-size="14.00" fill="#000000">D3GraphsComponent</text>
</g>
<!-- D3GraphsComponent&#45;&gt;AppModule -->
<g id="edge2" class="edge">
<title>D3GraphsComponent&#45;&gt;AppModule</title>
<path fill="none" stroke="#000000" d="M467.8023,-122.2228C467.8023,-122.2228 467.8023,-143.7269 467.8023,-143.7269"/>
<polygon fill="#000000" stroke="#000000" points="464.3023,-143.7269 467.8023,-153.7269 471.3023,-143.727 464.3023,-143.7269"/>
</g>
<!-- TopBarComponent -->
<g id="node3" class="node">
<title>TopBarComponent</title>
<polygon fill="#ffffb3" stroke="#000000" points="332.0968,-122 207.9032,-122 207.9032,-86 332.0968,-86 332.0968,-122"/>
<text text-anchor="middle" x="270" y="-99.8" font-family="Times,serif" font-size="14.00" fill="#000000">TopBarComponent</text>
</g>
<!-- TopBarComponent&#45;&gt;AppModule -->
<g id="edge3" class="edge">
<title>TopBarComponent&#45;&gt;AppModule</title>
<path fill="none" stroke="#000000" d="M270,-122.2667C270,-140.5552 270,-166 270,-166 270,-166 437.2923,-166 437.2923,-166"/>
<polygon fill="#000000" stroke="#000000" points="437.2923,-169.5001 447.2923,-166 437.2923,-162.5001 437.2923,-169.5001"/>
</g>
<!-- AppComponent  -->
<g id="node7" class="node">
<title>AppComponent </title>
<polygon fill="#80b1d3" stroke="#000000" points="543.439,-258 434.561,-258 434.561,-222 543.439,-222 543.439,-258"/>
<text text-anchor="middle" x="489" y="-235.8" font-family="Times,serif" font-size="14.00" fill="#000000">AppComponent </text>
</g>
<!-- AppModule&#45;&gt;AppComponent  -->
<g id="edge6" class="edge">
<title>AppModule&#45;&gt;AppComponent </title>
<path fill="none" stroke="#000000" stroke-dasharray="1,5" d="M489,-190.2228C489,-190.2228 489,-211.7269 489,-211.7269"/>
<polygon fill="#000000" stroke="#000000" points="485.5001,-211.7269 489,-221.7269 492.5001,-211.727 485.5001,-211.7269"/>
</g>
<!-- AppRoutingModule -->
<g id="node5" class="node">
<title>AppRoutingModule</title>
<polygon fill="#8dd3c7" stroke="#000000" points="764.2744,-122 761.2744,-126 740.2744,-126 737.2744,-122 635.7256,-122 635.7256,-86 764.2744,-86 764.2744,-122"/>
<text text-anchor="middle" x="700" y="-99.8" font-family="Times,serif" font-size="14.00" fill="#000000">AppRoutingModule</text>
</g>
<!-- AppRoutingModule&#45;&gt;AppModule -->
<g id="edge4" class="edge">
<title>AppRoutingModule&#45;&gt;AppModule</title>
<path fill="none" stroke="#000000" d="M700,-122.0225C700,-139.3734 700,-163 700,-163 700,-163 540.6868,-163 540.6868,-163"/>
<polygon fill="#000000" stroke="#000000" points="540.6868,-159.5001 530.6868,-163 540.6868,-166.5001 540.6868,-159.5001"/>
</g>
<!-- NgxD3GraphsModule -->
<g id="node6" class="node">
<title>NgxD3GraphsModule</title>
<polygon fill="#8dd3c7" stroke="#000000" points="923.6895,-122 920.6895,-126 899.6895,-126 896.6895,-122 782.3105,-122 782.3105,-86 923.6895,-86 923.6895,-122"/>
<text text-anchor="middle" x="853" y="-99.8" font-family="Times,serif" font-size="14.00" fill="#000000">NgxD3GraphsModule</text>
</g>
<!-- NgxD3GraphsModule&#45;&gt;AppModule -->
<g id="edge5" class="edge">
<title>NgxD3GraphsModule&#45;&gt;AppModule</title>
<path fill="none" stroke="#000000" d="M829.4684,-122.2228C829.4684,-142.3652 829.4684,-172 829.4684,-172 829.4684,-172 540.7481,-172 540.7481,-172"/>
<polygon fill="#000000" stroke="#000000" points="540.7481,-168.5001 530.7481,-172 540.7481,-175.5001 540.7481,-168.5001"/>
</g>
<!-- NgxD3GraphsComponent  -->
<g id="node10" class="node">
<title>NgxD3GraphsComponent </title>
<polygon fill="#fb8072" stroke="#000000" points="1130.4727,-190 963.5273,-190 963.5273,-154 1130.4727,-154 1130.4727,-190"/>
<text text-anchor="middle" x="1047" y="-167.8" font-family="Times,serif" font-size="14.00" fill="#000000">NgxD3GraphsComponent </text>
</g>
<!-- NgxD3GraphsModule&#45;&gt;NgxD3GraphsComponent  -->
<g id="edge9" class="edge">
<title>NgxD3GraphsModule&#45;&gt;NgxD3GraphsComponent </title>
<path fill="none" stroke="#000000" stroke-dasharray="5,2" d="M876.5316,-122.2479C876.5316,-145.0179 876.5316,-181 876.5316,-181 876.5316,-181 953.7633,-181 953.7633,-181"/>
<polygon fill="#000000" stroke="#000000" points="953.7633,-184.5001 963.7633,-181 953.7633,-177.5001 953.7633,-184.5001"/>
</g>
<!-- D3GraphsService -->
<g id="node8" class="node">
<title>D3GraphsService</title>
<ellipse fill="#fdb462" stroke="#000000" cx="104" cy="-104" rx="79.8546" ry="18"/>
<text text-anchor="middle" x="104" y="-99.8" font-family="Times,serif" font-size="14.00" fill="#000000">D3GraphsService</text>
</g>
<!-- D3GraphsService&#45;&gt;AppModule -->
<g id="edge7" class="edge">
<title>D3GraphsService&#45;&gt;AppModule</title>
<path fill="none" stroke="#000000" d="M104,-122.2921C104,-144.2057 104,-178 104,-178 104,-178 437.0654,-178 437.0654,-178"/>
<polygon fill="#000000" stroke="#000000" points="437.0654,-181.5001 447.0654,-178 437.0653,-174.5001 437.0654,-181.5001"/>
</g>
<!-- NgxD3GraphsComponent -->
<g id="node9" class="node">
<title>NgxD3GraphsComponent</title>
<polygon fill="#ffffb3" stroke="#000000" points="1316.472,-190 1153.528,-190 1153.528,-154 1316.472,-154 1316.472,-190"/>
<text text-anchor="middle" x="1235" y="-167.8" font-family="Times,serif" font-size="14.00" fill="#000000">NgxD3GraphsComponent</text>
</g>
<!-- NgxD3GraphsComponent&#45;&gt;NgxD3GraphsModule -->
<g id="edge8" class="edge">
<title>NgxD3GraphsComponent&#45;&gt;NgxD3GraphsModule</title>
<path fill="none" stroke="#000000" d="M1235,-153.7772C1235,-133.6348 1235,-104 1235,-104 1235,-104 933.956,-104 933.956,-104"/>
<polygon fill="#000000" stroke="#000000" points="933.9561,-100.5001 923.956,-104 933.956,-107.5001 933.9561,-100.5001"/>
</g>
</g>
</svg>
